<?xml version="1.0" standalone="no"?>
<!DOCTYPE svg PUBLIC "-//W3C//DTD SVG 20010904//EN"
 "http://www.w3.org/TR/2001/REC-SVG-20010904/DTD/svg10.dtd">
<svg version="1.0" xmlns="http://www.w3.org/2000/svg"
 width="949.000000pt" height="949.000000pt" viewBox="0 0 949.000000 949.000000"
 preserveAspectRatio="xMidYMid meet">
<metadata>
Created by potrace 1.11, written by Peter Selinger 2001-2013
</metadata>
<g transform="translate(0.000000,949.000000) scale(0.100000,-0.100000)"
fill="#000000" stroke="none">
<path d="M4715 9471 c-13 -13 -160 -102 -255 -156 -41 -23 -176 -100 -300
-170 -425 -242 -803 -421 -1077 -511 -175 -57 -204 -45 -160 68 14 35 27 79
30 99 l5 36 -40 -14 c-23 -8 -82 -44 -132 -82 -143 -106 -212 -153 -343 -231
-68 -40 -123 -74 -123 -77 0 -2 9 1 20 7 20 11 20 8 20 -1839 0 -1269 3 -1874
11 -1927 34 -245 200 -443 434 -517 99 -31 271 -31 370 0 234 74 400 272 434
517 8 53 11 714 11 2119 l1 2042 178 98 179 97 106 0 106 0 1 -1007 0 -1008
20 94 c89 424 401 768 820 904 230 76 538 76 768 0 354 -115 633 -378 766
-720 71 -187 77 -236 82 -735 5 -431 4 -448 -13 -448 -11 0 -113 -11 -229 -25
-115 -14 -218 -25 -227 -25 -17 0 -18 27 -18 423 0 442 -5 504 -45 620 -36
104 -81 173 -175 267 -96 96 -178 148 -295 187 -73 25 -94 27 -230 27 -136 0
-157 -2 -230 -27 -117 -39 -199 -91 -295 -187 -123 -123 -183 -239 -209 -400
-15 -91 -15 -4209 0 -4300 25 -159 102 -304 222 -416 87 -82 174 -135 282
-171 73 -25 94 -27 230 -27 136 0 157 2 230 27 115 38 199 91 291 182 121 120
188 246 213 406 7 41 11 369 11 907 l0 842 -370 0 -370 0 0 240 0 240 615 0
615 0 0 -1642 1 -1643 137 140 c246 251 463 496 460 519 -3 23 -9 23 -128 11
-82 -9 -100 4 -76 57 13 29 83 152 145 258 77 129 183 311 233 400 33 58 65
112 73 120 35 40 160 319 253 565 359 953 583 2087 667 3385 15 242 35 745 35
907 0 88 -1 93 -22 97 -13 2 -48 9 -78 15 -30 6 -96 18 -147 26 -634 103
-1072 288 -1543 651 -30 24 -74 49 -97 57 l-41 14 5 -36 c3 -20 16 -64 30 -99
44 -113 15 -125 -159 -68 -293 96 -641 262 -1123 537 -99 56 -214 121 -255
144 -95 53 -242 143 -254 156 -6 5 -17 9 -26 9 -9 0 -20 -4 -25 -9z"/>
<path d="M1920 8269 c-92 -38 -515 -137 -650 -154 -30 -3 -71 -11 -90 -17 -19
-6 -60 -14 -90 -17 l-55 -6 2 -255 c12 -1352 226 -2747 584 -3823 119 -358
309 -814 364 -877 8 -8 40 -62 73 -120 50 -89 156 -271 233 -400 62 -106 132
-229 145 -258 24 -53 6 -66 -76 -57 -120 12 -125 12 -128 -11 -6 -45 614 -693
943 -984 229 -203 529 -456 1099 -930 398 -330 431 -355 466 -355 35 0 68 25
466 355 770 639 1113 933 1312 1125 l104 100 -138 27 c-77 15 -163 33 -191 39
l-53 10 0 100 c0 54 -3 99 -6 99 -3 0 -40 -25 -82 -55 -360 -264 -857 -310
-1270 -120 -277 128 -505 373 -617 662 -73 190 -77 231 -82 776 l-5 487 -192
0 -192 0 -50 210 c-27 115 -51 210 -54 209 -3 0 -23 -25 -45 -56 -60 -83 -211
-222 -301 -276 -96 -57 -241 -110 -346 -127 -119 -19 -302 -8 -412 24 -430
128 -738 537 -786 1041 -6 71 -10 729 -10 1841 l0 1731 85 32 c47 18 85 34 85
37 0 6 -12 4 -40 -7z"/>
</g>
</svg>
