<!DOCTYPE svg PUBLIC "-//W3C//DTD SVG 20010904//EN" "http://www.w3.org/TR/2001/REC-SVG-20010904/DTD/svg10.dtd">
<svg version="1.0" xmlns="http://www.w3.org/2000/svg" width="744px" height="949px" viewBox="0 0 7440 9490" preserveAspectRatio="xMidYMid meet">
<g id="layer101" fill="#856b4a" stroke="none">
 <path d="M3644 9468 c-16 -13 -151 -124 -299 -247 -149 -124 -337 -281 -420 -350 -378 -313 -830 -704 -942 -814 -48 -47 -69 -75 -63 -81 6 -6 10 -22 10 -37 0 -26 42 -69 68 -69 5 0 16 -7 23 -16 11 -14 10 -16 -12 -13 -14 2 -31 -2 -39 -9 -8 -7 -24 -19 -34 -26 -23 -16 -15 -45 14 -53 11 -3 21 -13 21 -22 2 -17 5 -40 8 -55 0 -5 8 -3 16 4 12 10 13 16 4 26 -9 11 -5 14 21 14 24 0 31 -4 27 -15 -7 -17 9 -30 18 -15 5 8 13 6 25 -5 10 -9 23 -14 29 -11 5 4 13 2 16 -4 5 -8 11 -7 21 1 8 6 14 8 14 3 0 -4 10 2 23 14 12 11 26 22 32 24 5 2 8 10 7 19 -2 9 5 19 14 23 9 3 14 13 10 21 -3 8 -1 17 4 20 5 3 12 -7 16 -22 3 -15 13 -38 20 -50 8 -13 12 -23 8 -23 -4 0 -1 -7 6 -15 7 -8 16 -12 21 -9 5 3 12 -3 15 -13 3 -10 10 -26 15 -35 5 -10 9 -27 9 -37 0 -28 16 -35 32 -13 7 10 24 21 36 25 22 5 23 4 8 -12 -15 -16 -14 -19 12 -41 15 -14 32 -25 37 -26 6 0 18 -2 28 -2 29 -3 9 -22 -23 -22 -16 0 -30 7 -34 16 -10 25 -26 6 -22 -27 1 -16 13 -37 24 -45 21 -14 27 -11 23 10 -1 5 5 4 13 -4 15 -11 20 -7 17 12 0 4 9 12 20 18 11 7 18 17 15 25 -8 22 6 26 21 5 8 -11 18 -18 23 -15 4 3 10 -1 13 -9 3 -8 -2 -16 -15 -19 -20 -6 -19 -6 5 -39 14 -18 26 -37 26 -43 -1 -18 17 -15 37 6 18 20 18 21 1 34 -16 12 -16 13 4 18 11 3 18 3 15 0 -3 -3 -1 -14 5 -25 9 -16 19 -19 57 -16 42 3 47 6 45 26 -2 14 3 22 13 22 10 0 14 -6 11 -15 -8 -18 5 -26 23 -15 9 6 18 3 26 -8 10 -14 16 -15 32 -5 14 8 22 9 30 1 8 -8 13 -6 17 8 13 39 23 49 56 55 46 10 59 -1 20 -17 -22 -9 -31 -20 -31 -37 0 -12 -5 -28 -11 -34 -15 -15 -1 -36 21 -30 13 3 17 0 13 -9 -3 -7 -15 -12 -26 -11 -14 1 -22 -4 -22 -13 0 -8 6 -16 13 -16 6 -1 13 -3 15 -4 1 -1 15 -3 30 -4 20 -2 31 2 35 15 4 10 10 18 15 18 4 1 10 2 15 2 4 1 14 2 22 3 31 2 15 30 -20 34 -19 2 -43 4 -52 5 -9 1 -14 5 -12 9 3 5 16 5 29 2 20 -5 27 -1 35 21 7 19 15 25 26 21 9 -3 22 -6 30 -6 9 0 13 -4 9 -9 -3 -6 5 -15 17 -22 13 -7 26 -18 31 -25 9 -15 62 -28 78 -18 9 5 8 10 -2 18 -8 6 -14 18 -14 26 0 10 -12 16 -37 18 -21 2 -38 7 -38 13 0 14 44 11 76 -6 16 -8 36 -15 45 -15 21 0 33 -28 19 -45 -7 -9 -8 -15 -1 -19 5 -4 28 19 49 51 176 257 450 438 762 504 147 31 363 31 507 0 187 -39 355 -113 493 -217 45 -34 72 -49 75 -41 3 6 6 52 7 102 l3 89 183 37 c101 20 187 40 192 45 9 9 -144 160 -320 315 -98 86 -358 310 -411 354 -20 17 -141 118 -270 226 -438 366 -773 644 -803 667 -21 15 -44 22 -76 22 -32 0 -55 -7 -76 -22z m-1551 -1541 c4 3 7 4 7 1 0 -3 -7 -11 -16 -18 -8 -8 -14 -9 -12 -3 2 6 -1 11 -7 11 -5 1 -9 -6 -7 -14 2 -8 -4 -14 -13 -14 -9 0 -15 9 -15 24 0 29 19 38 41 20 9 -8 19 -11 22 -7z m286 -51 c-2 -2 -15 -7 -29 -10 l-25 -7 25 15 c21 12 42 14 29 2z m-204 -35 c3 -5 -4 -11 -15 -13 -38 -6 -16 -23 30 -24 25 0 44 -5 42 -10 -1 -5 -10 -9 -20 -9 -9 0 -23 -4 -30 -8 -8 -5 -19 -4 -27 3 -8 7 -16 10 -16 6 -1 -3 -2 -9 -3 -13 -1 -5 -5 -13 -9 -20 -4 -6 -4 -18 -1 -27 4 -11 1 -16 -10 -16 -16 0 -18 5 -20 45 -1 14 -8 20 -23 19 -13 0 -23 4 -23 11 0 18 22 35 46 35 12 0 27 7 34 15 14 17 36 20 45 6z m418 -11 c-3 -10 -11 -24 -19 -31 -10 -8 -10 -3 2 20 18 35 24 40 17 11z m-86 -104 c-2 -19 -7 -39 -11 -43 -5 -4 -6 -3 -2 4 3 6 -1 16 -11 22 -17 9 -17 10 1 30 11 12 20 21 22 21 2 0 2 -15 1 -34z m312 -118 c46 -4 50 -23 9 -38 -52 -20 -61 -21 -47 -4 15 18 -3 26 -48 20 -35 -4 -42 15 -8 25 11 3 19 13 18 23 -1 16 1 16 20 -2 12 -11 37 -22 56 -24z m-249 -28 c-10 -19 -30 -28 -30 -14 0 6 30 33 38 34 1 0 -2 -9 -8 -20z m140 -70 c0 -12 -28 -25 -36 -17 -9 9 6 27 22 27 8 0 14 -5 14 -10z m60 -39 c0 -5 3 -16 6 -25 4 -11 0 -16 -14 -16 -14 0 -19 6 -17 18 2 9 4 20 4 25 1 10 21 9 21 -2z"/>
 <path d="M2086 7802 c-3 -6 1 -15 8 -21 8 -7 17 -8 20 -3 3 6 -1 15 -8 21 -8 7 -17 8 -20 3z"/>
 <path d="M1805 7880 c-41 -41 -46 -50 -31 -56 9 -4 20 -4 23 0 3 3 12 1 20 -5 16 -14 47 7 36 25 -9 15 30 -16 40 -32 13 -21 25 -5 22 30 -2 20 -8 32 -15 30 -18 -4 -40 17 -34 33 13 32 -17 20 -61 -25z"/>
 <path d="M5627 7884 c-12 -12 -9 -682 3 -689 7 -5 8 -11 1 -18 -5 -7 -9 -83 -9 -169 0 -91 4 -160 9 -164 6 -4 6 -11 -2 -20 -6 -7 -8 -21 -5 -30 5 -13 9 -14 22 -3 8 7 14 8 13 3 -4 -20 2 -26 15 -15 11 9 12 7 9 -12 -5 -27 29 -62 52 -53 9 3 14 10 10 15 -3 5 0 13 7 17 7 4 10 3 5 -1 -4 -5 0 -17 9 -27 27 -29 100 -4 75 26 -17 20 15 39 40 23 13 -8 25 -7 46 3 15 8 31 16 36 18 4 2 7 -8 7 -22 0 -23 -4 -26 -34 -26 -18 0 -39 -6 -46 -14 -6 -8 -21 -16 -33 -18 -12 -2 -21 -7 -19 -13 1 -6 35 -9 82 -6 48 2 80 -1 80 -7 0 -5 -18 -8 -42 -5 -46 5 -103 -11 -94 -26 3 -5 24 -7 47 -4 24 4 50 1 65 -8 28 -14 58 -3 60 22 0 8 2 27 2 43 2 24 4 26 16 16 8 -6 34 -10 58 -8 42 3 45 0 40 -31 -1 -5 -12 -11 -24 -13 -38 -5 -16 -23 24 -20 20 2 39 -2 43 -7 9 -16 36 -13 57 6 16 14 16 18 3 33 -12 14 -12 20 0 43 12 23 11 29 -6 51 -10 13 -19 27 -19 31 0 4 -8 19 -19 33 -10 15 -40 68 -66 117 -26 50 -53 97 -59 105 -7 8 -25 39 -40 69 -40 76 -33 79 136 55 40 -5 49 -4 54 11 4 9 3 28 -2 41 -16 42 -595 660 -607 648z m153 -1011 c-8 -3 -21 -10 -28 -16 -9 -7 -11 -6 -6 7 3 9 16 16 28 15 14 0 16 -2 6 -6z m270 -83 c6 -11 17 -20 25 -20 8 0 15 -4 15 -10 0 -13 -17 -13 -25 0 -5 8 -11 7 -20 0 -17 -14 -35 -5 -35 19 0 35 24 41 40 11z"/>
 <path d="M1746 7791 c-18 -20 -9 -35 17 -25 12 4 14 0 10 -14 -7 -28 49 -66 83 -58 14 4 32 2 40 -4 7 -7 18 -9 23 -5 6 3 8 0 5 -8 -6 -17 11 -31 27 -21 7 4 -2 19 -22 40 -28 29 -38 33 -64 28 -32 -6 -35 -1 -26 45 1 3 7 -4 15 -14 8 -11 19 -16 30 -12 40 16 -2 53 -70 62 -42 5 -53 3 -68 -14z"/>
 <path d="M1915 7740 c-4 -6 -3 -16 3 -22 6 -6 12 -6 17 2 4 6 3 16 -3 22 -6 6 -12 6 -17 -2z"/>
 <path d="M2265 7720 c-3 -5 -4 -10 -1 -10 3 0 -3 -9 -14 -20 -11 -11 -26 -19 -32 -17 -7 1 -12 -4 -10 -12 1 -7 -5 -19 -15 -26 -17 -13 -16 -14 10 -24 16 -6 34 -8 40 -4 7 3 4 -3 -6 -14 -18 -20 -9 -41 12 -29 11 7 33 -18 24 -27 -3 -4 2 -9 11 -13 10 -4 22 -2 28 4 8 8 7 13 -5 18 -21 8 -12 24 13 24 23 0 36 18 22 32 -6 6 -8 16 -6 23 7 16 -12 29 -21 15 -3 -5 -14 -10 -23 -10 -13 0 -13 2 3 14 19 14 19 15 1 34 -10 12 -15 25 -12 31 4 5 2 12 -3 15 -5 4 -12 2 -16 -4z"/>
 <path d="M1646 7701 c-4 -5 -2 -12 4 -16 6 -4 8 -10 5 -15 -3 -5 -1 -11 4 -14 5 -4 12 -2 15 3 4 5 2 12 -4 16 -6 4 -8 10 -5 15 3 5 1 11 -4 14 -5 4 -12 2 -15 -3z"/>
 <path d="M1685 7700 c-8 -13 20 -24 41 -16 20 8 9 26 -16 26 -10 0 -22 -5 -25 -10z"/>
 <path d="M2007 7673 c-13 -12 -7 -34 11 -40 9 -3 25 -13 34 -21 10 -8 26 -12 37 -9 11 3 25 -1 32 -9 13 -16 29 -10 29 11 0 16 -56 46 -74 39 -7 -3 -21 4 -31 16 -19 21 -28 24 -38 13z"/>
 <path d="M1954 7646 c-15 -12 -17 -17 -6 -27 10 -11 15 -10 29 4 24 23 4 43 -23 23z"/>
 <path d="M2151 7646 c-9 -10 -9 -16 -1 -21 17 -10 37 12 24 25 -8 8 -15 6 -23 -4z"/>
 <path d="M1655 7631 c-7 -12 12 -24 25 -16 11 7 4 25 -10 25 -5 0 -11 -4 -15 -9z"/>
 <path d="M1884 7606 c-4 -10 -2 -22 4 -28 8 -8 13 -7 18 6 4 10 2 22 -4 28 -8 8 -13 7 -18 -6z"/>
 <path d="M2407 7554 c-3 -4 -2 -16 4 -26 13 -24 35 -9 26 16 -7 17 -19 21 -30 10z"/>
 <path d="M2215 7520 c-8 -12 20 -24 35 -15 6 3 8 11 5 16 -8 12 -32 12 -40 -1z"/>
 <path d="M2365 7511 c-7 -12 12 -24 25 -16 11 7 4 25 -10 25 -5 0 -11 -4 -15 -9z"/>
 <path d="M2407 7494 c-3 -4 -3 -12 1 -18 4 -6 7 -14 7 -18 0 -19 20 -6 20 14 0 21 -16 34 -28 22z"/>
 <path d="M1814 7469 c-10 -17 13 -36 27 -22 12 12 4 33 -11 33 -5 0 -12 -5 -16 -11z"/>
 <path d="M4250 7435 c-119 -24 -259 -90 -320 -151 -23 -23 -24 -26 -8 -38 13 -9 14 -16 6 -24 -8 -8 -7 -13 5 -18 19 -7 40 4 32 17 -8 13 19 11 32 -2 7 -7 22 -4 49 11 55 31 58 36 33 53 l-22 16 26 10 c20 8 27 18 27 36 0 19 5 25 21 25 17 0 19 -3 10 -13 -14 -17 -4 -27 26 -27 15 0 24 -6 25 -17 0 -10 2 -23 2 -30 1 -6 5 -15 9 -19 12 -13 8 -21 -14 -27 -24 -6 -17 -27 9 -27 9 0 26 7 36 15 17 13 22 13 38 -2 14 -12 15 -19 7 -29 -9 -11 -7 -20 5 -39 18 -27 40 -25 31 4 -3 12 4 20 26 28 23 9 29 16 25 30 -4 12 1 23 14 30 24 16 46 8 53 -18 3 -10 12 -19 21 -19 9 0 16 -3 16 -7 0 -5 -21 -8 -47 -8 -36 0 -48 -4 -48 -15 0 -11 12 -15 46 -15 33 0 45 -4 42 -12 -3 -7 2 -15 11 -18 9 -3 24 -8 34 -12 9 -4 22 -7 27 -8 18 -1 35 -16 30 -26 -4 -5 1 -12 9 -15 9 -3 16 -12 16 -20 0 -7 9 -18 20 -24 11 -6 19 -14 17 -18 -1 -4 1 -8 6 -9 6 -3 9 1 6 10 -6 17 -3 45 4 40 13 -8 108 -14 119 -7 5 3 4 12 -3 20 -6 8 -8 14 -3 15 5 0 17 2 28 4 23 5 55 -15 50 -30 -3 -6 4 -19 15 -29 18 -17 21 -17 48 1 25 16 27 16 14 0 -11 -14 -11 -20 0 -34 13 -16 12 -17 -3 -4 -27 20 -44 8 -43 -33 1 -44 4 -46 47 -50 19 -2 40 -6 46 -10 6 -3 13 -2 17 4 7 12 -3 32 -14 26 -3 -3 -7 3 -7 12 -1 9 -4 25 -9 35 -5 13 -2 17 14 17 15 0 21 -6 21 -24 0 -27 45 -80 60 -71 6 4 8 10 5 15 -3 5 -1 11 5 15 5 3 10 -3 10 -14 0 -12 1 -24 3 -28 1 -5 -5 -8 -13 -8 -8 0 -16 -4 -17 -10 -1 -5 7 -9 18 -8 11 2 18 -1 14 -6 -9 -16 12 -22 40 -11 31 12 31 47 0 42 -20 -3 -20 -3 -1 11 13 10 16 16 7 21 -6 4 -9 11 -6 16 3 4 -4 28 -14 53 -18 41 -23 45 -50 43 -17 -1 -31 1 -31 6 0 4 9 8 19 8 28 0 32 12 12 38 l-17 23 -28 -26 c-15 -14 -24 -30 -21 -35 3 -6 -2 -10 -11 -10 -10 0 -14 3 -11 6 3 4 2 15 -4 26 -8 14 -18 19 -35 15 -18 -3 -22 -1 -14 8 5 6 7 15 3 18 -3 4 0 7 7 7 7 0 18 -7 25 -16 9 -13 16 -14 31 -6 10 6 27 13 37 16 15 5 16 9 6 28 -21 40 -163 172 -222 207 -165 97 -358 132 -537 96z m90 -73 c0 -13 -12 -22 -22 -16 -10 6 -1 24 13 24 5 0 9 -4 9 -8z m254 -44 c-4 -6 -10 -5 -15 3 -14 22 -10 33 6 19 8 -7 12 -17 9 -22z m133 -15 c0 -18 -24 -16 -31 2 -3 8 -12 12 -20 9 -8 -3 -17 0 -22 7 -4 7 -3 10 4 5 6 -3 13 -2 16 3 8 13 53 -9 53 -26z m-442 -24 c4 -5 -7 -9 -24 -9 -39 0 -49 17 -11 18 16 0 32 -4 35 -9z m534 -28 c9 -6 10 -11 2 -15 -13 -8 -31 1 -31 15 0 11 11 11 29 0z m-191 -13 c8 -8 15 -8 29 3 17 13 17 13 3 -5 -8 -10 -25 -22 -38 -27 -20 -8 -22 -12 -11 -25 10 -12 9 -18 -4 -31 -15 -16 -15 -18 0 -35 25 -28 1 -21 -32 9 -16 15 -37 27 -46 25 -9 -2 -19 4 -22 12 -7 18 9 31 18 16 5 -8 11 -7 21 1 7 6 11 15 8 20 -3 5 5 8 18 6 14 -1 23 4 24 13 3 34 11 39 32 18z m-104 -23 c-5 -11 -11 -12 -25 -4 -26 13 -24 19 6 19 17 0 23 -4 19 -15z m396 -35 c0 -5 -9 -10 -21 -10 -11 0 -17 5 -14 10 3 6 13 10 21 10 8 0 14 -4 14 -10z m-65 -20 c-3 -6 2 -14 12 -18 10 -4 19 -13 21 -19 3 -20 -14 -15 -30 9 -9 13 -19 18 -27 14 -9 -6 -9 -11 1 -23 12 -15 11 -15 -9 -2 -17 10 -25 11 -34 2 -6 -6 -17 -9 -24 -7 -25 10 27 54 63 54 20 0 31 -4 27 -10z m-165 -62 c0 -5 -5 -6 -10 -3 -6 4 -19 1 -28 -7 -15 -12 -16 -11 -3 4 7 10 10 25 7 35 -6 15 -5 15 14 -2 11 -10 20 -22 20 -27z"/>
 <path d="M4565 7171 c-7 -12 12 -24 25 -16 11 7 4 25 -10 25 -5 0 -11 -4 -15 -9z"/>
 <path d="M2496 7391 c-17 -18 -17 -20 3 -31 12 -6 21 -9 22 -8 5 17 4 50 -1 53 -4 3 -15 -4 -24 -14z"/>
 <path d="M2615 7350 c-4 -6 -3 -16 3 -22 6 -6 12 -6 17 2 4 6 3 16 -3 22 -6 6 -12 6 -17 -2z"/>
 <path d="M2926 7321 c-8 -12 10 -51 24 -51 20 0 21 23 2 42 -13 13 -22 16 -26 9z"/>
 <path d="M2425 7310 c-8 -12 20 -24 35 -15 6 3 8 11 5 16 -8 12 -32 12 -40 -1z"/>
 <path d="M2878 7313 c-9 -17 -2 -38 12 -38 18 0 20 37 3 42 -6 2 -13 0 -15 -4z"/>
 <path d="M2775 7300 c-8 -12 20 -24 35 -15 6 3 8 11 5 16 -8 12 -32 12 -40 -1z"/>
 <path d="M3279 7265 c-20 -34 -22 -35 -40 -19 -11 9 -19 15 -20 13 0 -2 -2 -12 -4 -21 -2 -11 7 -23 26 -32 l29 -15 25 49 c29 58 16 79 -16 25z"/>
 <path d="M3075 7270 c-10 -16 16 -43 28 -31 11 11 2 41 -12 41 -5 0 -13 -5 -16 -10z"/>
 <path d="M3135 7220 c-4 -6 -3 -16 3 -22 6 -6 12 -6 17 2 4 6 3 16 -3 22 -6 6 -12 6 -17 -2z"/>
 <path d="M4054 7195 c-4 -11 -8 -23 -10 -26 -2 -3 10 -16 27 -28 24 -18 33 -20 45 -11 19 16 18 29 -3 37 -10 4 -26 16 -35 28 -16 20 -17 20 -24 0z"/>
 <path d="M3925 7170 c-8 -13 20 -24 41 -16 20 8 9 26 -16 26 -10 0 -22 -5 -25 -10z"/>
 <path d="M3801 7156 c-7 -8 -8 -17 -3 -20 6 -3 15 1 21 8 7 8 8 17 3 20 -6 3 -15 -1 -21 -8z"/>
 <path d="M4208 7153 c-7 -14 -3 -33 6 -33 12 -1 17 28 6 35 -5 3 -10 2 -12 -2z"/>
 <path d="M3835 7141 c-7 -12 12 -24 25 -16 11 7 4 25 -10 25 -5 0 -11 -4 -15 -9z"/>
 <path d="M4025 7140 c-11 -17 5 -32 21 -19 7 6 11 15 8 20 -7 12 -21 11 -29 -1z"/>
 <path d="M4372 7138 c-15 -15 -16 -45 -2 -53 6 -3 13 1 16 9 4 10 18 16 39 16 40 0 53 15 26 29 -26 15 -64 14 -79 -1z"/>
 <path d="M4139 7138 c-7 -15 -5 -70 3 -74 24 -15 43 33 24 64 -6 10 -24 17 -27 10z"/>
 <path d="M3215 7120 c-4 -6 -3 -16 3 -22 6 -6 12 -6 17 2 4 6 3 16 -3 22 -6 6 -12 6 -17 -2z"/>
 <path d="M3815 7080 c-4 -6 -3 -16 3 -22 6 -6 12 -6 17 2 4 6 3 16 -3 22 -6 6 -12 6 -17 -2z"/>
 <path d="M3741 7066 c-7 -8 -8 -17 -3 -20 6 -3 15 1 21 8 7 8 8 17 3 20 -6 3 -15 -1 -21 -8z"/>
 <path d="M4085 7071 c-7 -12 12 -24 25 -16 11 7 4 25 -10 25 -5 0 -11 -4 -15 -9z"/>
 <path d="M4393 7054 c-9 -23 11 -38 26 -20 13 16 7 36 -10 36 -5 0 -12 -7 -16 -16z"/>
 <path d="M4444 7057 c-7 -20 3 -37 21 -37 23 0 26 16 5 35 -18 16 -20 16 -26 2z"/>
 <path d="M3705 7000 c-4 -6 -3 -16 3 -22 6 -6 12 -6 17 2 4 6 3 16 -3 22 -6 6 -12 6 -17 -2z"/>
 <path d="M4375 7000 c-4 -6 -3 -16 3 -22 6 -6 12 -6 17 2 4 6 3 16 -3 22 -6 6 -12 6 -17 -2z"/>
 <path d="M4414 6999 c-10 -17 13 -36 27 -22 12 12 4 33 -11 33 -5 0 -12 -5 -16 -11z"/>
 <path d="M4807 6994 c-3 -4 -20 -7 -37 -8 -16 -1 -29 -6 -28 -11 2 -6 9 -9 16 -9 6 1 12 -4 12 -12 0 -25 20 -25 45 2 13 14 22 30 19 35 -6 10 -18 12 -27 3z"/>
 <path d="M4596 6981 c-7 -10 28 -43 37 -35 8 8 -11 44 -23 44 -5 0 -11 -4 -14 -9z"/>
 <path d="M4154 6966 c-9 -24 12 -44 28 -28 10 10 8 16 -5 29 -15 15 -17 15 -23 -1z"/>
 <path d="M3905 6961 c-7 -12 12 -24 25 -16 11 7 4 25 -10 25 -5 0 -11 -4 -15 -9z"/>
 <path d="M4196 6941 c-10 -11 -13 -22 -8 -25 5 -3 17 3 26 13 10 11 13 22 8 25 -5 3 -17 -3 -26 -13z"/>
 <path d="M4635 6910 c-3 -6 6 -15 21 -20 15 -6 32 -18 39 -26 10 -14 12 -14 23 -1 11 12 8 19 -14 36 -29 22 -59 27 -69 11z"/>
 <path d="M5635 6746 c-14 -10 -15 -15 -6 -21 8 -4 19 -1 28 8 20 19 1 30 -22 13z"/>
 <path d="M5715 6670 c-3 -6 1 -13 9 -16 9 -3 13 -10 10 -16 -3 -5 -12 -1 -19 9 -11 14 -16 15 -26 6 -16 -16 -3 -47 17 -39 9 4 23 1 30 -5 11 -9 18 -8 30 2 14 12 14 14 -2 26 -10 7 -14 13 -10 13 5 0 3 7 -4 15 -14 17 -26 19 -35 5z"/>
 <path d="M6279 6593 c-1 -5 -1 -11 0 -16 1 -4 -9 -11 -22 -16 -12 -5 -28 -16 -35 -24 -11 -13 -8 -18 18 -30 28 -15 31 -14 42 6 7 12 13 24 13 27 0 3 6 15 13 26 6 12 8 24 5 28 -9 8 -33 8 -34 -1z"/>
 <path d="M5625 6580 c-3 -5 -2 -11 2 -13 14 -8 53 -2 56 8 3 12 -51 17 -58 5z"/>
 <path d="M6387 6514 c-3 -5 3 -20 12 -33 11 -14 21 -19 25 -13 3 5 -2 20 -12 33 -11 12 -21 18 -25 13z"/>
 <path d="M6499 6336 c-5 -23 -2 -46 5 -48 12 -4 15 41 4 48 -4 3 -8 3 -9 0z"/>
 <path d="M6059 6328 c-6 -21 -5 -39 1 -43 11 -7 32 30 23 39 -6 6 -22 8 -24 4z"/>
 <path d="M6465 6170 c-11 -18 5 -31 26 -20 11 6 17 15 14 21 -8 12 -32 12 -40 -1z"/>
 <path d="M6637 6033 c-4 -3 0 -17 8 -30 9 -13 13 -23 10 -23 -3 0 -1 -9 5 -20 6 -11 15 -18 21 -15 5 4 4 15 -3 28 -7 12 -13 28 -14 36 -3 19 -19 33 -27 24z"/>
 <path d="M6686 5911 c-4 -5 -2 -12 4 -16 6 -4 8 -10 5 -15 -3 -5 -1 -11 4 -14 5 -4 12 -2 15 3 4 5 2 12 -4 16 -6 4 -8 10 -5 15 3 5 1 11 -4 14 -5 4 -12 2 -15 -3z"/>
 <path d="M6736 5781 c-4 -5 -2 -12 4 -16 6 -4 8 -10 5 -15 -3 -5 -1 -11 4 -14 5 -4 12 -2 15 3 4 5 2 12 -4 16 -6 4 -8 10 -5 15 3 5 1 11 -4 14 -5 4 -12 2 -15 -3z"/>
 <path d="M6797 5614 c-4 -4 -3 -12 1 -18 4 -6 7 -14 8 -18 1 -5 3 -10 4 -13 1 -3 3 -9 4 -15 0 -5 4 -10 9 -10 4 0 10 0 13 0 4 0 1 7 -6 15 -7 8 -9 15 -5 15 4 0 1 7 -6 17 -8 9 -12 18 -11 20 6 8 -4 13 -11 7z"/>
 <path d="M6866 5401 c-4 -5 -2 -12 4 -16 6 -4 8 -10 5 -15 -3 -5 -1 -11 4 -14 5 -4 12 -2 15 3 4 5 2 12 -4 16 -6 4 -8 10 -5 15 3 5 1 11 -4 14 -5 4 -12 2 -15 -3z"/>
 <path d="M6916 5241 c-4 -5 -2 -12 4 -16 6 -4 8 -10 5 -15 -3 -5 -1 -11 4 -14 5 -4 12 -2 15 3 4 5 2 12 -4 16 -6 4 -8 10 -5 15 3 5 1 11 -4 14 -5 4 -12 2 -15 -3z"/>
 <path d="M3 1540 c0 -25 2 -35 4 -22 2 12 2 32 0 45 -2 12 -4 2 -4 -23z"/>
 <path d="M7433 1540 c0 -25 2 -35 4 -22 2 12 2 32 0 45 -2 12 -4 2 -4 -23z"/>
 </g>
<g id="layer102" fill="#ffffff" stroke="none">
 <path d="M4252 7930 c-347 -44 -653 -221 -862 -498 -65 -87 -141 -235 -180 -350 -54 -160 -60 -238 -60 -739 l0 -453 -190 0 c-170 0 -190 -2 -198 -17 -5 -10 -29 -102 -53 -204 l-43 -186 -29 41 c-46 64 -185 197 -256 245 -200 136 -440 199 -659 172 -235 -29 -431 -130 -609 -314 -136 -141 -221 -281 -283 -465 -70 -211 -65 -54 -65 -2096 l0 -1839 109 -44 c107 -42 427 -182 435 -189 2 -2 9 -34 15 -71 6 -38 16 -67 21 -66 7 2 12 714 15 2005 l5 2003 27 73 c79 217 254 362 481 400 88 14 106 14 194 0 249 -41 441 -218 497 -458 14 -57 16 -318 16 -2172 l0 -2108 73 -36 c39 -20 106 -56 148 -80 l76 -42 149 6 149 7 3 945 2 945 31 -89 c33 -98 93 -224 142 -295 184 -273 467 -464 787 -532 148 -31 362 -31 510 0 506 107 900 518 975 1018 19 124 22 927 4 939 -21 13 -484 62 -494 52 -6 -6 -10 -171 -10 -456 0 -503 -1 -514 -76 -667 -92 -189 -259 -325 -469 -382 -89 -24 -281 -24 -370 0 -147 40 -291 131 -381 241 -59 72 -120 193 -146 291 -17 67 -18 159 -17 2205 2 2390 -4 2193 75 2355 72 148 185 260 334 331 111 53 184 68 320 68 136 0 209 -15 320 -68 149 -71 262 -183 334 -331 73 -148 70 -115 72 -1035 0 -454 1 -842 0 -862 l-1 -38 -359 0 c-292 0 -361 -3 -370 -14 -8 -9 -11 -85 -9 -252 l3 -239 625 0 625 0 0 1670 c0 1664 0 1670 -20 1668 -40 -4 -391 -80 -403 -87 -8 -5 -12 -38 -12 -96 l0 -89 -73 52 c-88 63 -206 125 -305 161 -162 58 -408 86 -570 66z"/>
 </g>
<g id="layer103" fill="#5e625f" stroke="none">
 <path d="M2521 8536 c-7 -8 -8 -17 -3 -20 6 -3 15 1 21 8 7 8 8 17 3 20 -6 3 -15 -1 -21 -8z"/>
 <path d="M2381 8416 c-7 -8 -8 -17 -3 -20 6 -3 15 1 21 8 7 8 8 17 3 20 -6 3 -15 -1 -21 -8z"/>
 <path d="M2301 8346 c-7 -8 -8 -17 -3 -20 6 -3 15 1 21 8 7 8 8 17 3 20 -6 3 -15 -1 -21 -8z"/>
 <path d="M2231 8286 c-7 -8 -8 -17 -3 -20 6 -3 15 1 21 8 7 8 8 17 3 20 -6 3 -15 -1 -21 -8z"/>
 <path d="M2141 8206 c-7 -8 -8 -17 -3 -20 6 -3 15 1 21 8 7 8 8 17 3 20 -6 3 -15 -1 -21 -8z"/>
 <path d="M2309 8165 c-10 -42 -3 -50 41 -50 46 0 58 14 37 43 -9 11 -76 18 -78 7z"/>
 <path d="M2066 8141 c-10 -11 -13 -22 -8 -25 5 -3 17 3 26 13 10 11 13 22 8 25 -5 3 -17 -3 -26 -13z"/>
 <path d="M2524 8109 c-10 -17 13 -36 27 -22 12 12 4 33 -11 33 -5 0 -12 -5 -16 -11z"/>
 <path d="M2545 8070 c-8 -12 20 -24 35 -15 6 3 8 11 5 16 -8 12 -32 12 -40 -1z"/>
 <path d="M2605 8070 c-4 -6 -3 -16 3 -22 6 -6 12 -6 17 2 4 6 3 16 -3 22 -6 6 -12 6 -17 -2z"/>
 <path d="M2255 8060 c-3 -5 -12 -7 -19 -4 -17 6 -30 -12 -20 -27 4 -8 9 -8 17 0 7 7 15 7 22 1 15 -12 51 13 41 28 -9 14 -33 16 -41 2z"/>
 <path d="M2445 8049 c-4 -5 -13 -8 -21 -5 -26 10 -23 -10 7 -38 17 -16 36 -26 44 -22 19 7 19 25 1 32 -8 3 -12 12 -10 19 7 16 -12 29 -21 14z"/>
 <path d="M1992 8019 c-13 -5 -20 -14 -17 -20 4 -6 13 -8 20 -5 14 5 15 -11 2 -31 -4 -6 -3 -14 3 -18 15 -9 13 -58 -2 -51 -7 3 -21 9 -30 12 -10 3 -18 19 -20 37 -2 16 -11 35 -21 41 -17 10 -42 -12 -198 -174 -99 -102 -257 -270 -352 -373 -148 -161 -172 -193 -172 -220 0 -32 1 -32 45 -30 25 1 71 5 103 8 57 7 57 7 57 -19 0 -15 -12 -45 -27 -69 -35 -54 -56 -90 -93 -157 -16 -30 -66 -116 -109 -190 -44 -74 -106 -180 -137 -235 -32 -55 -70 -119 -86 -142 -15 -23 -28 -44 -28 -47 0 -3 -13 -27 -28 -53 -16 -27 -41 -78 -57 -113 -15 -36 -36 -82 -47 -102 -10 -21 -17 -38 -13 -38 3 0 -1 -10 -9 -22 -18 -28 -76 -178 -69 -178 3 0 1 -6 -5 -13 -14 -16 -83 -207 -75 -207 3 0 1 -6 -5 -12 -13 -18 -111 -319 -167 -515 -242 -860 -407 -1947 -435 -2878 -21 -683 -22 -795 -8 -799 7 -2 42 -8 78 -15 36 -6 88 -15 115 -20 28 -6 113 -22 190 -36 77 -14 192 -39 255 -55 63 -16 118 -26 122 -22 4 4 9 831 11 1837 3 1715 4 1835 21 1905 62 261 160 451 318 616 299 311 730 397 1104 220 50 -24 120 -63 155 -87 75 -51 201 -174 248 -242 25 -37 36 -46 45 -37 6 6 31 97 56 203 l46 192 194 5 195 5 6 505 c4 323 10 523 18 555 24 103 43 171 56 195 7 14 18 44 24 66 6 23 21 56 34 75 37 55 68 121 64 133 -3 6 -20 13 -38 14 -18 2 -44 9 -56 17 -12 8 -30 15 -40 15 -9 0 -26 9 -37 19 -21 19 -22 19 -61 0 -22 -11 -48 -30 -57 -42 -10 -12 -18 -19 -18 -15 0 4 -12 3 -27 -3 l-28 -10 29 30 c16 17 33 28 38 25 17 -11 28 7 17 27 -6 12 -13 18 -16 15 -4 -3 -12 -1 -20 6 -10 8 -17 8 -25 0 -16 -16 -62 -16 -52 0 4 6 1 16 -7 22 -8 6 -14 17 -14 24 0 6 -4 12 -10 12 -5 0 -10 -9 -10 -19 0 -10 -8 -27 -17 -37 -9 -11 -18 -23 -20 -29 -2 -5 -14 -10 -28 -10 -16 0 -24 -5 -22 -14 3 -12 0 -12 -13 -1 -12 10 -13 16 -4 27 9 10 9 17 1 25 -14 14 -45 -8 -35 -26 4 -7 1 -7 -7 1 -11 10 -11 15 0 28 11 14 7 19 -13 16 -5 -1 -6 3 -3 8 8 12 67 -9 82 -29 10 -12 14 -12 29 0 16 13 16 15 -5 32 -13 10 -20 21 -17 25 4 3 14 0 22 -7 14 -11 20 -10 42 12 29 29 24 55 -6 36 -10 -6 -27 -8 -37 -4 -18 7 -17 9 4 17 40 15 15 30 -39 23 -43 -6 -53 -4 -74 16 -20 19 -27 21 -40 10 -8 -7 -12 -17 -9 -22 4 -6 -16 -9 -52 -6 -55 3 -59 2 -59 -19 0 -12 -10 -33 -23 -45 l-23 -23 18 32 c15 26 16 34 5 45 -11 11 -16 10 -26 -4 -18 -25 -24 -22 -18 7 2 13 16 36 29 50 14 14 22 26 17 27 -5 0 -13 2 -19 3 -5 2 -19 3 -31 4 -17 1 -21 7 -20 31 1 16 6 30 11 31 6 1 28 2 50 3 28 1 40 5 40 16 0 8 -5 14 -12 13 -13 -3 -7 22 10 44 12 16 -6 23 -50 20 -36 -3 -48 -11 -38 -27 5 -8 10 -8 20 0 11 9 12 7 8 -10 -7 -28 -26 -35 -53 -20 -16 9 -25 8 -38 -2 -13 -11 -15 -11 -7 2 5 8 17 21 28 29 13 9 15 17 8 24 -7 7 -15 6 -26 -3 -12 -10 -18 -10 -30 0 -8 7 -22 10 -30 6 -10 -3 -15 1 -15 13 0 10 -6 24 -14 30 -10 9 -22 3 -55 -29 -45 -44 -50 -57 -23 -67 9 -4 22 -13 28 -21 12 -16 50 -12 46 6 -3 17 9 15 24 -5 13 -17 15 -17 28 0 13 17 14 16 12 -7 0 -14 -7 -28 -13 -31 -19 -7 -16 -52 4 -63 20 -12 10 -44 -11 -36 -8 3 -23 1 -32 -4 -14 -8 -21 -5 -31 15 -16 32 -17 30 6 36 15 4 19 12 18 33 -2 25 -7 29 -32 30 -51 1 -55 3 -65 30 -7 16 -16 24 -24 21 -8 -3 -17 1 -20 9 -3 8 -15 14 -26 14 -12 0 -33 14 -47 30 -13 17 -28 28 -33 25 -4 -3 -13 2 -19 9 -8 10 -9 16 -1 21 6 3 8 10 5 14 -5 9 -63 25 -82 22 -12 -2 -12 16 0 37 18 27 -8 39 -51 21z m-142 -139 c0 -5 -5 -10 -12 -10 -6 0 -21 -8 -32 -17 -15 -13 -14 -10 3 10 25 28 41 35 41 17z m242 -15 c3 3 11 -1 18 -10 11 -13 8 -15 -15 -15 -31 0 -65 -25 -65 -47 0 -7 -7 -13 -15 -13 -8 0 -15 2 -15 4 0 2 -3 11 -6 19 -4 11 2 16 23 19 20 2 28 8 28 23 0 25 15 37 31 25 6 -6 13 -8 16 -5z m-122 -80 c0 -8 -7 -15 -15 -15 -16 0 -20 12 -8 23 11 12 23 8 23 -8z m520 -14 c0 -12 -20 -25 -27 -18 -7 7 6 27 18 27 5 0 9 -4 9 -9z m-424 -31 c0 -13 -4 -16 -10 -10 -6 6 -24 11 -40 11 -28 2 -27 3 9 9 22 4 40 8 40 9 1 0 1 -8 1 -19z m144 1 c0 -4 -16 -7 -35 -7 -41 0 -47 13 -7 18 30 4 42 1 42 -11z m-390 -1 c0 -5 -7 -10 -15 -10 -8 0 -15 5 -15 10 0 6 7 10 15 10 8 0 15 -4 15 -10z m465 -70 c3 -5 1 -10 -4 -10 -6 0 -20 -9 -31 -20 -24 -24 -27 -4 -3 22 18 20 29 23 38 8z m6 -83 c-1 -12 -15 -9 -19 4 -3 6 1 10 8 8 6 -3 11 -8 11 -12z m469 -23 c0 -3 -66 -23 -85 -24 -24 -3 -13 19 12 22 39 5 73 6 73 2z m281 -237 c-8 -8 -11 -7 -11 4 0 20 13 34 18 19 3 -7 -1 -17 -7 -23z"/>
 <path d="M2215 7960 c-8 -12 20 -24 35 -15 6 3 8 11 5 16 -8 12 -32 12 -40 -1z"/>
 <path d="M3321 7956 c-9 -10 -9 -16 -1 -21 17 -10 37 12 24 25 -8 8 -15 6 -23 -4z"/>
 <path d="M2325 7949 c-16 -5 -37 -6 -47 -3 -23 7 -30 -9 -13 -32 12 -16 17 -17 34 -7 11 7 26 10 34 7 17 -6 44 24 31 35 -5 5 -22 5 -39 0z"/>
 <path d="M2734 7858 c-4 -6 5 -22 22 -36 16 -14 29 -30 29 -35 0 -13 53 -28 60 -17 3 4 2 16 -2 26 -4 11 -3 15 5 10 14 -8 25 11 18 30 -4 9 -11 12 -18 8 -7 -5 -27 -9 -45 -10 -23 -1 -33 4 -36 18 -6 20 -22 24 -33 6z"/>
 <path d="M5646 7862 c-3 -6 1 -15 8 -21 8 -7 17 -8 20 -3 3 6 -1 15 -8 21 -8 7 -17 8 -20 3z"/>
 <path d="M2684 7813 c-28 -64 -23 -157 6 -103 12 22 62 29 58 8 -2 -8 6 -12 20 -11 13 2 21 -1 17 -7 -3 -5 -1 -19 5 -30 9 -17 14 -19 26 -9 18 15 18 28 -2 50 -9 10 -23 15 -32 11 -15 -5 -15 -4 -2 12 12 16 12 20 -1 30 -9 6 -14 16 -12 23 7 19 -17 26 -36 9 -16 -15 -17 -14 -13 13 6 44 -15 47 -34 4z"/>
 <path d="M3015 7830 c-4 -6 -3 -16 3 -22 6 -6 12 -6 17 2 4 6 3 16 -3 22 -6 6 -12 6 -17 -2z"/>
 <path d="M2945 7800 c-9 -15 5 -32 23 -28 10 2 26 -8 38 -21 30 -35 51 -18 23 20 -11 16 -24 27 -29 24 -5 -3 -11 -1 -15 5 -8 13 -32 13 -40 0z"/>
 <path d="M3250 7795 c-10 -12 -9 -16 4 -21 9 -3 23 -3 32 0 13 5 14 9 4 21 -7 8 -16 15 -20 15 -4 0 -13 -7 -20 -15z"/>
 <path d="M3435 7781 c-7 -12 12 -24 25 -16 11 7 4 25 -10 25 -5 0 -11 -4 -15 -9z"/>
 <path d="M3320 7764 c-9 -10 -10 -18 -2 -26 12 -12 32 -2 32 17 0 21 -16 26 -30 9z"/>
 <path d="M3137 7754 c-3 -3 -3 -12 -1 -19 8 -21 -16 -29 -30 -10 -11 15 -13 15 -25 1 -19 -23 -7 -33 44 -34 36 0 48 4 56 21 9 17 8 23 -7 34 -20 14 -28 16 -37 7z"/>
 <path d="M2917 7713 c-28 -15 -28 -33 0 -33 10 0 14 -6 10 -20 -7 -27 16 -55 38 -47 13 6 15 10 6 21 -8 10 -9 16 -1 21 6 3 7 12 3 18 -5 7 -8 21 -8 31 0 25 -13 27 -48 9z"/>
 <path d="M2844 7697 c-8 -22 11 -46 26 -31 7 7 5 17 -4 30 -14 18 -15 18 -22 1z"/>
 <path d="M3396 7671 c-16 -18 -16 -20 14 -41 34 -24 65 -15 35 10 -8 7 -15 18 -15 26 0 22 -16 24 -34 5z"/>
 <path d="M2615 7670 c-8 -12 20 -24 35 -15 6 3 8 11 5 16 -8 12 -32 12 -40 -1z"/>
 <path d="M2985 7650 c-3 -5 1 -21 10 -34 13 -19 21 -23 33 -16 10 5 25 11 35 14 15 5 16 9 7 26 -11 21 -73 29 -85 10z"/>
 <path d="M3174 7646 c-4 -10 -2 -22 4 -28 8 -8 13 -7 18 6 4 10 2 22 -4 28 -8 8 -13 7 -18 -6z"/>
 <path d="M3255 7621 c-7 -12 12 -24 25 -16 11 7 4 25 -10 25 -5 0 -11 -4 -15 -9z"/>
 <path d="M3495 7620 c-8 -12 20 -24 35 -15 6 3 8 11 5 16 -8 12 -32 12 -40 -1z"/>
 <path d="M5916 7582 c-3 -5 5 -19 18 -31 13 -13 26 -18 30 -13 3 5 -5 19 -18 31 -13 13 -26 18 -30 13z"/>
 <path d="M3095 7571 c-6 -5 -26 -11 -45 -13 -40 -3 -47 -21 -10 -26 14 -2 30 -8 37 -14 14 -12 82 9 100 31 17 20 6 33 -17 19 -15 -10 -22 -10 -32 0 -14 14 -21 15 -33 3z"/>
 <path d="M3329 7548 c-6 -12 -5 -89 1 -93 4 -3 19 4 31 15 23 19 23 21 6 34 -16 13 -16 14 4 19 27 7 15 27 -17 27 -13 0 -25 -1 -25 -2z"/>
 <path d="M3220 7516 c-10 -13 -10 -19 0 -32 12 -14 15 -14 29 0 14 15 14 17 0 32 -14 14 -17 14 -29 0z"/>
 <path d="M6006 7482 c-3 -5 8 -21 23 -36 16 -15 31 -23 35 -18 3 5 -8 21 -23 36 -16 15 -31 23 -35 18z"/>
 <path d="M3394 7465 c-14 -10 -16 -17 -8 -25 7 -7 15 -5 28 9 21 23 6 36 -20 16z"/>
 <path d="M4233 7385 c-41 -40 -58 -44 -66 -14 -4 16 -12 20 -39 17 -28 -3 -33 -7 -36 -31 -2 -20 -8 -27 -17 -23 -8 3 -18 -1 -22 -8 -5 -8 -19 -16 -33 -18 -41 -5 -31 -32 15 -38 l40 -5 -32 -17 c-19 -9 -35 -12 -39 -7 -3 5 -16 9 -30 9 -14 0 -35 5 -46 11 -22 12 -27 8 -134 -112 -15 -17 -57 -89 -75 -129 -6 -14 -17 -36 -24 -50 -7 -14 -20 -56 -30 -95 -16 -64 -17 -221 -19 -2205 -1 -2046 0 -2138 17 -2205 58 -217 204 -398 402 -495 118 -59 189 -74 330 -74 141 0 212 15 330 74 151 74 271 195 344 345 75 153 76 164 76 667 -1 445 -1 447 20 443 11 -2 108 -14 215 -25 107 -12 205 -23 218 -26 l22 -4 0 -413 c0 -458 -7 -541 -60 -699 -112 -334 -349 -595 -665 -731 -580 -251 -1260 -31 -1567 508 -51 90 -106 230 -126 324 -9 43 -21 79 -27 80 -7 1 -11 -335 -13 -984 l-2 -984 -108 -3 c-77 -2 -107 -6 -107 -16 0 -6 52 -41 115 -76 150 -83 400 -226 470 -268 142 -87 179 -108 190 -108 11 0 48 21 190 108 30 18 123 72 205 119 606 346 956 516 1283 622 118 39 142 40 142 6 0 -14 -11 -52 -25 -85 -23 -56 -32 -110 -19 -122 11 -12 79 12 118 41 441 333 741 482 1192 595 76 19 193 44 259 56 66 11 143 25 170 31 28 5 79 14 115 20 36 7 71 13 78 15 14 4 13 116 -8 799 -17 559 -87 1211 -195 1821 -56 312 -167 816 -186 840 -5 6 -6 14 -2 17 3 4 1 13 -5 20 -7 8 -9 16 -7 19 3 3 1 18 -6 34 -6 16 -13 40 -15 54 -6 28 -42 157 -51 180 -4 8 -7 18 -8 23 -2 4 -3 8 -4 10 -2 1 -4 13 -7 27 -2 14 -7 32 -11 40 -3 8 -8 24 -10 34 -2 11 -8 25 -14 33 -6 7 -8 13 -4 13 4 0 2 7 -5 15 -7 8 -10 15 -7 15 5 0 -23 91 -40 130 -3 8 -7 18 -8 23 -2 4 -4 9 -5 12 -1 3 -4 10 -5 15 -1 6 -3 11 -5 13 -1 1 -3 10 -5 20 -2 10 -7 26 -11 35 -4 9 -8 22 -10 27 -1 6 -8 24 -15 40 -7 17 -13 32 -13 35 -1 3 -5 11 -9 18 -5 6 -5 12 -1 12 3 0 -1 11 -10 25 -9 14 -14 25 -10 25 3 0 -1 11 -10 25 -9 14 -14 25 -10 25 4 0 1 7 -6 15 -7 8 -9 15 -5 15 4 0 0 11 -9 25 -9 14 -14 25 -10 25 3 0 -4 16 -16 35 -12 19 -19 35 -15 35 3 0 -3 17 -13 38 -11 20 -32 66 -47 102 -16 35 -41 86 -57 113 -15 26 -28 50 -28 53 0 3 -15 26 -32 52 -35 50 -35 50 -92 157 -21 39 -43 77 -51 85 -7 8 -22 33 -33 56 -30 60 -46 70 -66 42 -9 -13 -20 -22 -23 -20 -4 2 -9 -1 -11 -7 -2 -5 9 -16 24 -24 19 -10 23 -16 15 -22 -7 -4 -18 -2 -24 4 -6 6 -20 11 -30 11 -14 0 -17 5 -13 16 9 24 -22 70 -37 55 -17 -17 -36 -13 -30 7 3 13 -11 30 -50 60 -29 23 -59 42 -65 42 -21 0 -25 -23 -6 -38 18 -14 18 -14 1 -8 -11 3 -35 -1 -54 -11 -26 -12 -40 -14 -52 -6 -11 7 -23 7 -33 2 -17 -9 -33 14 -22 32 10 16 -6 31 -21 19 -9 -8 -15 -8 -20 0 -3 5 5 14 19 20 37 14 32 36 -11 57 -21 9 -42 23 -48 29 -7 8 -17 9 -32 3 -29 -11 -31 -49 -3 -56 31 -8 24 -23 -11 -23 -16 0 -28 4 -24 9 3 5 1 12 -3 15 -5 3 -8 22 -7 43 3 37 4 38 41 38 l39 0 0 45 c0 41 -2 44 -25 44 -15 0 -25 -5 -25 -14 0 -8 -7 -15 -15 -15 -8 0 -15 6 -15 13 0 6 -3 12 -7 12 -5 0 -8 -3 -7 -6 0 -4 -5 -10 -13 -15 -18 -12 -20 -59 -2 -66 11 -4 12 -9 3 -19 -8 -9 -8 -18 -1 -26 12 -16 10 -52 -5 -70 -12 -16 -12 -24 -13 -1275 l0 -983 -610 0 -610 0 0 235 0 235 364 0 c272 0 367 3 372 12 13 21 5 1738 -8 1762 -7 11 -11 26 -10 32 5 25 -17 64 -33 58 -11 -5 -15 0 -13 17 2 17 -2 23 -12 22 -8 -2 -21 6 -28 17 -10 16 -10 20 1 20 7 0 18 -5 24 -11 6 -6 13 -7 16 -2 8 14 -11 53 -30 61 -11 4 -18 17 -18 32 0 19 -6 26 -24 28 -29 5 -64 43 -50 56 12 13 -28 56 -52 56 -9 0 -19 7 -23 15 -3 8 -12 15 -20 15 -33 0 -66 23 -66 46 0 27 -28 45 -57 38 -14 -4 -25 2 -36 19 -12 19 -25 25 -54 25 -21 0 -50 2 -65 5 -15 3 -30 1 -34 -4 -3 -6 -13 -8 -21 -5 -22 9 -36 -3 -22 -20 6 -8 8 -14 4 -14 -5 0 -1 -8 8 -17 8 -10 15 -22 14 -27 -1 -5 12 -10 30 -12 26 -3 37 2 59 29 23 28 25 29 10 4 -10 -16 -16 -33 -13 -40 11 -34 -141 -54 -184 -24 -29 21 -43 21 -59 2 -7 -9 -19 -14 -25 -11 -7 2 -24 -2 -39 -9 -15 -8 -28 -10 -31 -4 -4 5 1 9 9 9 8 0 18 5 21 11 9 14 -24 50 -44 48 -32 -3 -51 1 -51 11 0 17 70 11 98 -8 35 -23 137 -25 137 -2 0 10 -9 15 -27 14 -18 0 -29 5 -29 15 -2 17 -5 40 -8 55 0 5 -7 4 -14 -2 -16 -14 -54 -5 -61 14 -9 23 -35 16 -73 -21z m537 -128 c0 -23 38 -51 52 -40 9 6 21 6 35 -2 30 -15 19 -25 -28 -25 -30 0 -42 6 -55 25 -17 26 -37 25 -27 -2 12 -31 -19 -8 -33 25 l-13 32 34 0 c23 0 35 -5 35 -13z m-102 -79 c-3 -15 -29 -37 -42 -38 -6 0 -2 6 9 13 10 8 15 19 11 25 -4 7 -1 12 8 12 9 0 15 -6 14 -12z m72 -68 c13 -9 13 -11 0 -20 -22 -15 -30 -12 -30 10 0 22 8 25 30 10z m1024 -321 c18 2 26 -1 22 -8 -4 -6 -25 -11 -46 -11 -31 0 -38 3 -34 15 4 8 11 12 18 8 6 -4 24 -6 40 -4z m256 -68 c0 -14 -10 -15 -62 -11 l-63 4 50 6 c43 4 50 8 47 24 -3 17 -2 18 12 7 9 -8 16 -21 16 -30z"/>
 <path d="M6136 7342 c-3 -5 3 -17 13 -26 11 -10 22 -13 25 -8 3 5 -3 17 -13 26 -11 10 -22 13 -25 8z"/>
 <path d="M4475 7311 c-7 -12 12 -24 25 -16 11 7 4 25 -10 25 -5 0 -11 -4 -15 -9z"/>
 <path d="M5925 7231 c-7 -12 12 -24 25 -16 11 7 4 25 -10 25 -5 0 -11 -4 -15 -9z"/>
 <path d="M5624 7197 c-3 -9 -2 -22 2 -29 5 -7 9 -16 9 -20 0 -5 5 -8 10 -8 6 0 10 3 10 8 0 4 4 12 7 18 4 6 -1 19 -12 29 -18 16 -20 16 -26 2z"/>
 <path d="M6005 7190 c-4 -6 -3 -16 3 -22 6 -6 12 -6 17 2 4 6 3 16 -3 22 -6 6 -12 6 -17 -2z"/>
 <path d="M5715 7141 c-7 -12 12 -24 25 -16 11 7 4 25 -10 25 -5 0 -11 -4 -15 -9z"/>
 <path d="M5924 7119 c-10 -17 13 -36 27 -22 12 12 4 33 -11 33 -5 0 -12 -5 -16 -11z"/>
 <path d="M6045 7076 c-19 -14 -10 -26 18 -22 24 3 29 12 14 24 -10 9 -18 8 -32 -2z"/>
 <path d="M5925 7071 c-7 -12 12 -24 25 -16 11 7 4 25 -10 25 -5 0 -11 -4 -15 -9z"/>
 <path d="M5895 7060 c-4 -6 -3 -16 3 -22 6 -6 12 -6 17 2 4 6 3 16 -3 22 -6 6 -12 6 -17 -2z"/>
 <path d="M6055 7030 c-4 -6 -3 -16 3 -22 6 -6 12 -6 17 2 4 6 3 16 -3 22 -6 6 -12 6 -17 -2z"/>
 <path d="M5867 7019 c-12 -7 -15 -15 -9 -22 11 -14 3 -89 -8 -82 -15 10 -20 -13 -6 -25 11 -8 20 -8 35 -1 20 11 40 -2 21 -14 -20 -12 1 -25 40 -25 38 0 56 10 42 24 -4 4 -7 13 -7 19 0 7 -12 14 -27 17 -27 5 -27 6 -13 34 18 33 10 53 -13 34 -11 -9 -14 -10 -8 -1 7 13 -9 53 -22 53 -4 0 -15 -5 -25 -11z"/>
 <path d="M6005 6991 c-7 -12 12 -24 25 -16 11 7 4 25 -10 25 -5 0 -11 -4 -15 -9z"/>
 <path d="M5784 6979 c-8 -13 24 -41 41 -36 5 2 10 12 10 23 0 22 -39 32 -51 13z"/>
 <path d="M6035 6911 c-10 -17 34 -34 51 -21 7 7 11 16 8 21 -7 12 -51 11 -59 0z"/>
 <path d="M6117 6904 c-3 -4 1 -17 10 -31 20 -30 41 -16 24 16 -12 21 -23 26 -34 15z"/>
 <path d="M6167 6894 c-8 -13 33 -75 44 -68 9 5 2 24 -24 58 -8 10 -17 15 -20 10z"/>
 <path d="M5840 6855 c-10 -12 -9 -16 4 -21 9 -3 23 -3 32 0 13 5 14 9 4 21 -7 8 -16 15 -20 15 -4 0 -13 -7 -20 -15z"/>
 <path d="M6086 6853 c-4 -5 -13 -8 -19 -8 -26 0 -11 -30 17 -33 36 -4 54 11 36 33 -14 17 -23 19 -34 8z"/>
 <path d="M6146 6821 c-17 -19 -21 -47 -7 -55 5 -3 14 1 21 9 10 12 10 18 -1 32 -8 10 -9 14 -2 10 6 -4 14 -3 17 2 12 18 -11 20 -28 2z"/>
 <path d="M1850 5355 c-209 -38 -401 -205 -478 -417 l-27 -73 -3 -1921 c-2 -1824 -1 -1921 15 -1935 10 -8 59 -39 108 -69 79 -48 238 -158 361 -251 39 -29 107 -53 118 -41 13 12 4 66 -19 122 -33 79 -33 110 0 110 50 0 371 -118 568 -209 49 -23 93 -38 98 -35 5 3 9 861 9 2092 0 1836 -2 2095 -16 2152 -55 235 -263 433 -499 475 -97 17 -138 17 -235 0z"/>
 </g>

</svg>